<?xml version="1.0" standalone="no"?>
<!DOCTYPE svg PUBLIC "-//W3C//DTD SVG 20010904//EN"
 "http://www.w3.org/TR/2001/REC-SVG-20010904/DTD/svg10.dtd">
<svg version="1.0" xmlns="http://www.w3.org/2000/svg"
 width="111.000000pt" height="111.000000pt" viewBox="0 0 111.000000 111.000000"
 preserveAspectRatio="xMidYMid meet">

<g transform="translate(0.000000,111.000000) scale(0.100000,-0.100000)"
fill="#000000" stroke="none">
<path d="M510 1027 c-90 -79 -220 -127 -347 -127 l-73 0 0 -52 c0 -102 20
-267 45 -365 53 -210 164 -366 312 -436 93 -44 137 -43 235 5 212 105 338 380
338 734 l0 114 -65 0 c-128 0 -249 43 -349 124 l-52 43 -44 -40z m77 -83 c69
-64 179 -104 285 -104 l58 0 0 -63 c0 -158 -34 -324 -91 -443 -70 -147 -218
-252 -314 -224 -93 28 -191 114 -240 210 -57 113 -95 289 -95 443 l0 77 58 0
c101 0 229 48 283 106 12 13 24 24 25 24 2 0 16 -12 31 -26z"/>
<path d="M535 870 c-36 -40 -137 -80 -214 -87 l-74 -6 7 -103 c4 -57 16 -138
26 -181 22 -82 58 -166 75 -169 6 -1 104 100 220 224 l209 226 -54 16 c-66 20
-93 34 -141 71 -36 28 -36 28 -54 9z"/>
<path d="M627 502 l-227 -247 26 -23 c14 -13 30 -22 35 -20 6 2 97 100 204
218 l194 215 1 53 c0 28 -1 52 -2 52 -2 0 -105 -112 -231 -248z"/>
<path d="M690 348 c-80 -89 -146 -165 -148 -170 -7 -17 37 -7 96 23 66 33 114
83 152 159 28 56 61 150 52 149 -4 0 -72 -73 -152 -161z"/>
</g>
</svg>
